<svg width="22" height="22" viewBox="0 0 22 22" fill="none" xmlns="http://www.w3.org/2000/svg">
    <path d="M16.7812 19.8889C16.7812 19.2753 17.2859 18.7778 17.9084 18.7778C18.5309 18.7778 19.0356 19.2753 19.0356 19.8889C19.0356 20.5025 18.5309 21 17.9084 21C17.2859 21 16.7812 20.5025 16.7812 19.8889Z" stroke="#E38800" stroke-width="2" stroke-linecap="round" stroke-linejoin="round"></path>
    <path d="M5.50781 19.8889C5.50781 19.2753 6.01245 18.7778 6.63496 18.7778C7.25747 18.7778 7.76211 19.2753 7.76211 19.8889C7.76211 20.5025 7.25747 21 6.63496 21C6.01245 21 5.50781 20.5025 5.50781 19.8889Z" stroke="#E38800" stroke-width="2" stroke-linecap="round" stroke-linejoin="round"></path>
    <path d="M1 1H1.86533C2.40892 1 2.87506 1.38244 2.97375 1.90937L5.5086 15.4441" stroke="#E38800" stroke-width="2" stroke-linecap="round" stroke-linejoin="round"></path>
    <path d="M3.82031 4.33252H19.8743C20.5991 4.33252 21.1355 4.99722 20.9725 5.69344L18.8916 14.5821C18.7736 15.0862 18.3182 15.4433 17.7934 15.4433H5.51104" stroke="#E38800" stroke-width="2" stroke-linecap="round" stroke-linejoin="round"></path>
</svg>